<svg width="25" height="35" viewBox="0 0 25 35" fill="none" xmlns="http://www.w3.org/2000/svg">
<path opacity="0.11" fill-rule="evenodd" clip-rule="evenodd" d="M12.9998 28.0842C17.0235 28.0842 20.2854 29.4085 20.2854 31.042C20.2854 32.6756 17.0235 33.9998 12.9998 33.9998C8.97605 33.9998 5.71412 32.6756 5.71412 31.042C5.71412 29.4085 8.97605 28.0842 12.9998 28.0842Z" fill="black"/>
<path fill-rule="evenodd" clip-rule="evenodd" d="M23.9734 13.1149C23.9734 6.97539 19.0542 1.99981 12.9863 1.99981C7.00398 1.99981 2.1467 6.84086 2.01195 12.8611C2.0078 12.859 2.00292 12.859 1.99933 12.859C1.99665 12.9135 2.0052 12.9683 2.00382 13.0233C2.0034 13.0536 1.99933 13.0843 1.99933 13.1149C1.99933 13.2253 2.01285 13.3319 2.01588 13.441C2.13945 20.6635 10.2087 28.2844 12.9864 30.9971C20.7868 24.599 23.0576 18.6642 23.7136 15.4997C23.7377 15.3887 23.7587 15.2782 23.7789 15.1671C23.8423 14.8263 23.886 14.5207 23.9166 14.2589C23.9166 14.2556 23.9175 14.2528 23.9175 14.2494C23.9992 13.5179 23.9734 13.1149 23.9734 13.1149Z" fill="#0A0A0A"/>
<path fill-rule="evenodd" clip-rule="evenodd" d="M12.9837 8.4917C15.5834 8.4917 17.6909 10.5263 17.6909 13.036C17.6909 15.5458 15.5834 17.5803 12.9837 17.5803C10.3839 17.5803 8.27637 15.5458 8.27637 13.036C8.27637 10.5263 10.3839 8.4917 12.9837 8.4917Z" fill="#D7D7D7"/>
</svg>
